C:\Users\febre\Documents\GitHub\PredSim_repo_results\PredSim\Examples\ExampleResults\Synergies\gait1018_v2.mot
version=1
nRows=9
nColumns=29
inDegrees=yes
endheader
                time	         pelvis_tilt	           pelvis_tx	           pelvis_ty	       hip_flexion_l	       hip_flexion_r	        knee_angle_l	        knee_angle_r	       ankle_angle_l	       ankle_angle_r	    lumbar_extension	hamstrings_r/activation	bifemsh_r/activation	glut_max_r/activation	iliopsoas_r/activation	rect_fem_r/activation	  vasti_r/activation	gastroc_r/activation	 soleus_r/activation	tib_ant_r/activation	hamstrings_l/activation	bifemsh_l/activation	glut_max_l/activation	iliopsoas_l/activation	rect_fem_l/activation	  vasti_l/activation	gastroc_l/activation	 soleus_l/activation	tib_ant_l/activation	
          1.03692663	         -7.79592259	          1.27990966	          0.89115891	         -9.17382322	         30.43770086	        -13.20118887	         -7.97002972	          4.16563121	          7.66034408	          1.56932138	          0.19333156	          0.05000001	          0.04999999	          0.05000000	          0.06877542	          0.07088276	          0.05235458	          0.05000000	          0.21888918	          0.05000000	          0.11521484	          0.04999999	          0.46963409	          0.05853231	          0.04999999	          0.23093245	          0.29057520	          0.04999999	
          1.04729590	         -7.81064588	          1.29641623	          0.89065967	         -8.49932402	         29.46627887	        -16.15179417	         -7.76865277	          2.78043179	          7.35757743	          1.99785647	          0.16484318	          0.05000003	          0.07195220	          0.05000000	          0.05864103	          0.08433178	          0.06286901	          0.05864112	          0.21495756	          0.04999999	          0.09823736	          0.05403520	          0.40047262	          0.05000003	          0.04999999	          0.19690339	          0.24775748	          0.04999999	
          1.05766517	         -7.81942430	          1.31299222	          0.89016508	         -7.57678524	         28.46776674	        -19.47576522	         -7.89728132	          0.99572030	          7.00446464	          2.43040642	          0.14356545	          0.06877542	          0.10986654	          0.04999999	          0.04999999	          0.10339963	          0.05360495	          0.05000006	          0.25499463	          0.05000000	          0.08376159	          0.08066129	          0.34146096	          0.05000000	          0.04999999	          0.16788868	          0.21124916	          0.04999999	
          1.06803443	         -7.82870287	          1.32926093	          0.88994742	         -6.39326678	         27.52932276	        -23.10177483	         -8.08782266	         -1.23744411	          6.59158382	          2.82666504	          0.12241036	          0.05864104	          0.18529013	          0.04999999	          0.04999999	          0.17392930	          0.04999999	          0.04999999	          0.29304222	          0.05000001	          0.07141890	          0.06877545	          0.29114497	          0.05000000	          0.05000004	          0.14314944	          0.18012053	          0.26464750	
          1.07840370	         -7.84335043	          1.34485490	          0.89010540	         -4.99869476	         26.72400329	        -26.89433174	         -8.41774038	         -3.10258903	          6.17476473	          3.14579192	          0.10437258	          0.05000000	          0.19594147	          0.04999999	          0.05000000	          0.23388015	          0.05000000	          0.04999999	          0.31183482	          0.05000000	          0.06089497	          0.05864104	          0.24824329	          0.09069472	          0.04999999	          0.12205565	          0.15357886	          0.22565036	
          1.08877297	         -7.86532968	          1.35968871	          0.89072968	         -3.52044721	         26.02446969	        -30.49573766	         -8.84784436	         -3.49315255	          5.90493894	          3.38008098	          0.09207915	          0.05000003	          0.18975294	          0.04999999	          0.05000000	          0.26215361	          0.05000000	          0.05000000	          0.31408621	          0.05000000	          0.07295082	          0.04999999	          0.21166339	          0.15212241	          0.04999999	          0.10407013	          0.13094824	          0.26898776	
          1.09914223	         -7.89286071	          1.37388943	          0.89192151	         -2.03011601	         25.35398351	        -33.69153954	         -9.25714212	         -3.32267594	          5.76670247	          3.54488131	          0.08361302	          0.05000003	          0.17892722	          0.04999999	          0.05000000	          0.26748314	          0.05000000	          0.05000000	          0.30600675	          0.05000262	          0.12015448	          0.04999999	          0.18047372	          0.21112273	          0.04999999	          0.08873487	          0.11165236	          0.27648268	
          1.10951150	         -7.92414302	          1.38761142	          0.89361991	         -0.57202952	         24.65060280	        -36.38841162	         -9.55401537	         -2.94761794	          5.74319355	          3.65837986	          0.08014027	          0.05000005	          0.16348109	          0.04999999	          0.05000000	          0.25541882	          0.05000000	          0.05000003	          0.29223574	          0.06499316	          0.16076588	          0.04999999	          0.15693028	          0.25687822	          0.04999999	          0.07565952	          0.09519982	          0.26052727	
          1.11988077	         -7.95687660	          1.40097853	          0.89569418	          0.83401817	         23.88354484	        -38.58033764	         -9.69738355	         -2.42716050	          5.78970419	          3.73371454	          0.08053060	          0.05000006	          0.14903151	          0.04999999	          0.05000000	          0.23625946	          0.05000002	          0.05163450	          0.27710774	          0.07796160	          0.20877298	          0.04999999	          0.14205713	          0.28621466	          0.04999999	          0.07133944	          0.08117165	          0.24494371	
